<svg xmlns="http://www.w3.org/2000/svg" version="1.1" xmlns:xlink="http://www.w3.org/1999/xlink" xmlns:svgjs="http://svgjs.com/svgjs" width="1400" height="680" preserveAspectRatio="none" viewBox="0 0 1400 680"><g mask="url(&quot;#SvgjsMask1313&quot;)" fill="none"><rect width="1400" height="680" x="0" y="0" fill="rgba(17, 17, 17, 1)"></rect><path d="M -471.57111327205,368 C -415.57,320.4 -303.57,91.2 -191.57111327205,130 C -79.57,168.8 -23.57,521.2 88.42888672794999,562 C 200.43,602.8 256.43,368.8 368.42888672795,334 C 480.43,299.2 536.43,402 648.4288867279499,388 C 760.43,374 816.43,232 928.4288867279499,264 C 1040.43,296 1114.11,548.8 1208.42888672795,548 C 1302.74,547.2 1361.69,317.6 1400,260" stroke="rgba(57, 108, 178, 0.52)" stroke-width="2"></path><path d="M -451.0586268807466,422 C -395.06,348.6 -283.06,46.4 -171.05862688074663,55 C -59.06,63.6 -3.06,408.8 108.94137311925337,465 C 220.94,521.2 276.94,338 388.9413731192534,336 C 500.94,334 556.94,497.6 668.9413731192534,455 C 780.94,412.4 836.94,118.2 948.9413731192534,123 C 1060.94,127.8 1138.73,438.8 1228.9413731192533,479 C 1319.15,519.2 1365.79,355 1400,324" stroke="rgba(225, 59, 47, 0.52)" stroke-width="2"></path><path d="M -332.0760059515062,200 C -276.08,287.2 -164.08,647.2 -52.076005951506225,636 C 59.92,624.8 115.92,168.2 227.92399404849377,144 C 339.92,119.8 395.92,524 507.9239940484938,515 C 619.92,506 675.92,114.6 787.9239940484938,99 C 899.92,83.4 955.92,433 1067.9239940484938,437 C 1179.92,441 1281.51,112 1347.9239940484938,119 C 1414.34,126 1389.58,401.4 1400,472" stroke="rgba(33, 147, 68, 0.52)" stroke-width="2"></path><path d="M -274.23743840381553,492 C -218.24,438.6 -106.24,236.4 5.762561596184463,225 C 117.76,213.6 173.76,466 285.76256159618447,435 C 397.76,404 453.76,87.6 565.7625615961845,70 C 677.76,52.4 733.76,314 845.7625615961845,347 C 957.76,380 1013.76,181.4 1125.7625615961845,235 C 1237.76,288.6 1350.92,599 1405.7625615961845,615 C 1460.61,631 1401.15,375 1400,315" stroke="rgba(251, 191, 23, 0.53)" stroke-width="2"></path></g><defs><mask id="SvgjsMask1313"><rect width="1400" height="680" fill="#ffffff"></rect></mask></defs></svg>